<svg width="18" height="16" viewBox="0 0 18 16" fill="none" xmlns="http://www.w3.org/2000/svg">
<path fill-rule="evenodd" clip-rule="evenodd" d="M8.16676 0.658334C8.22433 0.475798 8.33858 0.316366 8.49294 0.203195C8.64729 0.0900239 8.8337 0.029007 9.0251 0.029007C9.21649 0.029007 9.40291 0.0900239 9.55726 0.203195C9.71161 0.316366 9.82587 0.475798 9.88343 0.658334L11.4334 5.425H16.4334C16.6317 5.4175 16.8269 5.47512 16.9893 5.58903C17.1517 5.70295 17.2724 5.8669 17.3329 6.05585C17.3933 6.24479 17.3903 6.44833 17.3242 6.63538C17.2581 6.82242 17.1325 6.98268 16.9668 7.09167L12.9084 10.0333L14.4584 14.8083C14.5197 14.9902 14.5213 15.1869 14.4628 15.3698C14.4044 15.5526 14.2891 15.712 14.1336 15.8246C13.9782 15.9372 13.7908 15.9972 13.5989 15.9957C13.407 15.9943 13.2205 15.9316 13.0668 15.8167L9.0001 12.8417L4.94176 15.7917C4.78802 15.9066 4.60157 15.9693 4.40963 15.9707C4.2177 15.9722 4.03034 15.9122 3.87491 15.7996C3.71948 15.687 3.60412 15.5276 3.54569 15.3448C3.48725 15.1619 3.4888 14.9652 3.5501 14.7833L5.1001 10.0083L1.04176 7.06667C0.876001 6.95768 0.750474 6.79742 0.684365 6.61038C0.618256 6.42334 0.615199 6.21979 0.675661 6.03085C0.736123 5.8419 0.85678 5.67795 1.0192 5.56403C1.18161 5.45012 1.37686 5.3925 1.5751 5.4H6.5751L8.16676 0.658334Z" fill="#FBAD39"/>
</svg>
