<svg width="20" height="18" viewBox="0 0 20 18" fill="none" xmlns="http://www.w3.org/2000/svg">
<path fill-rule="evenodd" clip-rule="evenodd" d="M9.16676 1.65833C9.22433 1.4758 9.33858 1.31637 9.49294 1.2032C9.64729 1.09002 9.8337 1.02901 10.0251 1.02901C10.2165 1.02901 10.4029 1.09002 10.5573 1.2032C10.7116 1.31637 10.8259 1.4758 10.8834 1.65833L12.4334 6.425H17.4334C17.6317 6.4175 17.8269 6.47512 17.9893 6.58903C18.1517 6.70295 18.2724 6.8669 18.3329 7.05585C18.3933 7.24479 18.3903 7.44833 18.3242 7.63538C18.2581 7.82242 18.1325 7.98268 17.9668 8.09167L13.9084 11.0333L15.4584 15.8083C15.5197 15.9902 15.5213 16.1869 15.4628 16.3698C15.4044 16.5526 15.2891 16.712 15.1336 16.8246C14.9782 16.9372 14.7908 16.9972 14.5989 16.9957C14.407 16.9943 14.2205 16.9316 14.0668 16.8167L10.0001 13.8417L5.94176 16.7917C5.78802 16.9066 5.60157 16.9693 5.40963 16.9707C5.2177 16.9722 5.03034 16.9122 4.87491 16.7996C4.71948 16.687 4.60412 16.5276 4.54569 16.3448C4.48725 16.1619 4.4888 15.9652 4.5501 15.7833L6.1001 11.0083L2.04176 8.06667C1.876 7.95768 1.75047 7.79742 1.68437 7.61038C1.61826 7.42334 1.6152 7.21979 1.67566 7.03085C1.73612 6.8419 1.85678 6.67795 2.0192 6.56403C2.18161 6.45012 2.37686 6.3925 2.5751 6.4H7.5751L9.16676 1.65833Z" stroke="#C3D4E9" stroke-width="1.5" stroke-linecap="round" stroke-linejoin="round"/>
</svg>
